PathFileType	4	(X/Y/Z)	./resultDataOpenSim/trcMotMarkerGrf/sub06/qtm-14-05.trc
DataRate	CameraRate	NumFrames	NumMarkers	Units	OrigDataRate	OrigDataStartFrame	OrigNumFrames
250.000000	250.000000	11	24	m	250.000000	1	543
Frame#	Time	L.Toe.Tip			R.Toe.Tip			L.Ankle.Lat			R.Ankle.Lat			L.Ankle.Med			R.Ankle.Med			L.Heel			R.Heel			L.Knee.Lat			R.Knee.Lat			L.Knee.Med			R.Knee.Med			L.Thigh.Upper			R.Thigh.Upper			L.ASIS			R.ASIS			V.Sacral			L.Acromium			R.Acromium			C7			L.Elbow			R.Elbow			L.Wrist.Lat			R.Wrist.Lat
		X1	Y1	Z1	X2	Y2	Z2	X3	Y3	Z3	X4	Y4	Z4	X5	Y5	Z5	X6	Y6	Z6	X7	Y7	Z7	X8	Y8	Z8	X9	Y9	Z9	X10	Y10	Z10	X11	Y11	Z11	X12	Y12	Z12	X13	Y13	Z13	X14	Y14	Z14	X15	Y15	Z15	X16	Y16	Z16	X17	Y17	Z17	X18	Y18	Z18	X19	Y19	Z19	X20	Y20	Z20	X21	Y21	Z21	X22	Y22	Z22	X23	Y23	Z23	X24	Y24	Z24

1	0	-1.566211	0.032323812	-0.085921829	-1.0103436	0.10239807	0.11869263	-1.6874575	0.069005385	-0.096169535	-1.1386128	0.079489676	0.1315976	-1.6796029	0.078835348	-0.010727368	-1.1270543	0.10744251	0.046506783	NaN	NaN	NaN	-1.1780151	0.036854532	0.060284474	-1.5440713	0.41084121	-0.11308156	-1.2384599	0.45431692	0.14209061	-1.5638669	0.41969649	0.0082969017	-1.2507743	0.43443242	0.011486128	-1.4643216	0.79057422	-0.17375675	-1.4233022	0.78097153	0.17300974	-1.3802836	0.83543344	-0.13975868	-1.3477317	0.8420418	0.10414669	-1.5400619	0.9086963	0.018505426	-1.4103105	1.3246913	-0.18094101	-1.4125898	1.3019276	0.18255913	-1.4901346	1.3493203	0.00033372152	-1.3783209	1.002228	-0.2586279	-1.5390919	1.0107913	0.25112503	-1.1505974	0.90586792	-0.21010985	-1.4397494	0.78878139	0.25983157
2	0.004	-1.565431	0.032400262	-0.086646547	-0.9968325	0.10639011	0.11837547	-1.6874891	0.06923854	-0.095899022	-1.1245412	0.080673755	0.13208139	-1.6785036	0.079059815	-0.010626211	-1.1140892	0.10853594	0.04676211	NaN	NaN	NaN	-1.1635239	0.036797865	0.061236853	-1.5411009	0.40995704	-0.11314609	-1.2325847	0.45303412	0.14137884	-1.5604717	0.41862982	0.0085083184	-1.2445656	0.432847	0.010772777	-1.4594619	0.78895856	-0.17400647	-1.4174622	0.77895336	0.17306719	-1.3747274	0.83400162	-0.13931901	-1.3416788	0.84021289	0.10417086	-1.5343099	0.90712814	0.018145878	-1.4045397	1.3230198	-0.18069703	-1.4073599	1.3001652	0.18297645	-1.4848117	1.3478513	0.00074438949	-1.3702798	1.0007605	-0.25849509	-1.5352609	1.0095894	0.25126024	-1.1419651	0.9069436	-0.20828179	-1.4385592	0.78676015	0.26036435
3	0.008	-1.5648863	0.032451167	-0.087151863	-0.9834798	0.11044764	0.11793955	-1.6874292	0.069501268	-0.09563681	-1.1107127	0.081866435	0.13252648	-1.6774705	0.079278417	-0.010482136	-1.1013099	0.109663	0.046973736	NaN	NaN	NaN	-1.1491819	0.036809766	0.062078331	-1.5381004	0.4090789	-0.11317728	-1.2266049	0.45183487	0.14074495	-1.5569323	0.41760895	0.0086860635	-1.2384072	0.43129293	0.010098053	-1.4545744	0.78744172	-0.17409132	-1.4114417	0.77702843	0.17312861	-1.3692472	0.83252432	-0.13904812	-1.3356073	0.83842027	0.10420765	-1.5285378	0.90554493	0.017779783	-1.3987883	1.3213527	-0.18041976	-1.4020956	1.2984424	0.18338389	-1.4794304	1.3463939	0.001237592	-1.3622487	0.99929328	-0.25833102	-1.5313776	1.0084814	0.2513188	-1.1334081	0.90800878	-0.20646076	-1.4372574	0.78478576	0.26093035
4	0.012	-1.5647485	0.032457649	-0.087284284	-0.97038792	0.11458375	0.11731234	-1.6872226	0.069801848	-0.095392754	-1.097311	0.083058684	0.13287359	-1.6766458	0.079497196	-0.010267091	-1.0888616	0.11083199	0.047113572	NaN	NaN	NaN	-1.1350109	0.036910265	0.062732528	-1.5350437	0.40821357	-0.11316182	-1.2204835	0.45074486	0.14021711	-1.5531592	0.41661442	0.0088128904	-1.2322956	0.42977479	0.0095030669	-1.4496497	0.78600654	-0.17398958	-1.4053538	0.77517923	0.17316455	-1.3638475	0.83099112	-0.13897368	-1.3294937	0.83666596	0.1042485	-1.522732	0.90395729	0.017495843	-1.3930513	1.3197057	-0.18010184	-1.396784	1.2967742	0.18378897	-1.4739278	1.3449277	0.0017949449	-1.3542291	0.99783644	-0.25811488	-1.5274143	1.0074628	0.25132255	-1.1249553	0.9090435	-0.2046449	-1.4357891	0.78289221	0.26153982
5	0.016	-1.5649548	0.032421811	-0.087101636	-0.95771951	0.11866647	0.11657525	-1.6868872	0.070128451	-0.095172333	-1.084456	0.084216427	0.13307338	-1.6761857	0.079738947	-0.0099858442	-1.0768391	0.11201977	0.04717627	NaN	NaN	NaN	-1.121126	0.037097723	0.063174776	-1.5319142	0.4073595	-0.11309743	-1.2142622	0.44973987	0.13979016	-1.5491428	0.41561353	0.0088937014	-1.2262117	0.42828067	0.0090181092	-1.4447127	0.78456461	-0.17379344	-1.3993408	0.77335255	0.17316728	-1.3584844	0.82942589	-0.13902049	-1.3233408	0.83493471	0.10427525	-1.5169003	0.90239235	0.017400304	-1.3873107	1.318099	-0.17974129	-1.3914354	1.2951526	0.18420367	-1.4683109	1.3434288	0.0023175776	-1.3462474	0.99641184	-0.25785821	-1.523373	1.0064928	0.25132672	-1.1166148	0.91002892	-0.20283124	-1.4341999	0.78108203	0.26217078
6	0.02	-1.5652312	0.032368396	-0.086847209	-0.9456831	0.12246584	0.11591432	-1.686487	0.070480375	-0.094970377	-1.0721748	0.085291605	0.1331275	-1.6760443	0.080032453	-0.0096852424	-1.0652699	0.1131861	0.047164816	NaN	NaN	NaN	-1.1078022	0.037365867	0.063423291	-1.5286945	0.40650506	-0.11298925	-1.2079788	0.44878309	0.13945654	-1.544964	0.41461159	0.0089581007	-1.2201397	0.42680226	0.0086421438	-1.4397762	0.78305722	-0.17359479	-1.3933532	0.77154128	0.17316015	-1.3531128	0.82785265	-0.1391117	-1.3171606	0.83321341	0.10428056	-1.5110519	0.90086325	0.017488359	-1.3815503	1.316539	-0.17932794	-1.38605	1.2935569	0.18463255	-1.4626358	1.3419001	0.0027444869	-1.3383346	0.9950367	-0.25758568	-1.5192639	1.0055704	0.25134666	-1.1083805	0.9109585	-0.20102287	-1.4325594	0.77933832	0.26279104
7	0.024	-1.5653721	0.032320996	-0.08670577	-0.93437688	0.12580808	0.11543132	-1.6860622	0.070886636	-0.094773504	-1.0604453	0.086235491	0.1330684	-1.6759274	0.080383301	-0.0094139218	-1.0541605	0.11428564	0.047079659	NaN	NaN	NaN	-1.0952331	0.037669504	0.063504181	-1.5253724	0.40564683	-0.1128546	-1.2016234	0.44785116	0.13921053	-1.5407531	0.4136277	0.0090496695	-1.2140586	0.42534435	0.0083520346	-1.4348164	0.7814995	-0.17342993	-1.3873719	0.76974772	0.17313956	-1.3477178	0.82628421	-0.13920548	-1.310951	0.83150003	0.10426561	-1.5051903	0.89936685	0.017647993	-1.3757675	1.31502	-0.17886187	-1.3806164	1.2919702	0.18507771	-1.4569347	1.3403688	0.0031230746	-1.3305029	0.99371494	-0.25729449	-1.5150888	1.0047149	0.25136714	-1.1002464	0.91183219	-0.19923126	-1.4308689	0.77765627	0.26338825
8	0.028	-1.5653724	0.03228512	-0.086688795	-0.92373953	0.12862483	0.11509753	-1.6856139	0.071381103	-0.094567707	-1.0492553	0.087011714	0.13291732	-1.6756833	0.080741813	-0.0091262656	-1.0435222	0.11527283	0.046925118	NaN	NaN	NaN	-1.0834121	0.037937995	0.063440308	-1.5219518	0.40479848	-0.1127153	-1.1951565	0.44694151	0.13904405	-1.5365988	0.41266585	0.0091944811	-1.207933	0.42392681	0.0081290395	-1.4298079	0.77994701	-0.17328825	-1.3814594	0.76796448	0.17309	-1.3423043	0.82473096	-0.13929454	-1.3046827	0.82980522	0.10422907	-1.4993117	0.89789984	0.017777445	-1.369962	1.3135333	-0.17835787	-1.3751251	1.2903911	0.18554114	-1.4511986	1.3388663	0.0035561917	-1.3227474	0.99244252	-0.25697106	-1.5108312	1.0039139	0.25138062	-1.0922117	0.91264968	-0.19746882	-1.429091	0.77603805	0.26397218
9	0.032	-1.5653127	0.032256191	-0.086733201	-0.91366766	0.13090641	0.11483255	-1.6851429	0.07197251	-0.094347483	-1.0386159	0.087604983	0.13268889	-1.6757768	0.080993212	-0.0086227797	-1.0333633	0.11610082	0.046712532	NaN	NaN	NaN	-1.0722736	0.038126028	0.063270894	-1.518452	0.40397942	-0.11258583	-1.1885439	0.44606765	0.13894012	-1.5325148	0.41171993	0.0093772545	-1.201718	0.42258129	0.0079634043	-1.4247476	0.77843679	-0.17314059	-1.3755717	0.76621236	0.17303184	-1.3368703	0.8231998	-0.13939484	-1.298316	0.82814791	0.10417023	-1.4934107	0.89646499	0.0178835	-1.3641344	1.3120768	-0.17782914	-1.3695686	1.2888335	0.18602288	-1.445411	1.3374105	0.0040938055	-1.3150632	0.99121593	-0.25662059	-1.5064772	1.0031326	0.25140776	-1.0842753	0.91341021	-0.19574128	-1.4272041	0.77448002	0.26455878
10	0.036	-1.565249	0.032229834	-0.086792115	-0.90410775	0.13268324	0.1145427	-1.6846578	0.072652399	-0.094121568	-1.0285424	0.088016054	0.13240743	-1.6769233	0.0810559	-0.0077208903	-1.0236924	0.11672425	0.046450939	NaN	NaN	NaN	-1.0617941	0.03821165	0.063047776	-1.514892	0.4032025	-0.11246697	-1.181776	0.44524566	0.13886546	-1.5284291	0.41079719	0.0095517421	-1.1953705	0.42133623	0.0078459914	-1.4196418	0.77697398	-0.17296513	-1.3695759	0.76454052	0.17299829	-1.3314039	0.821691	-0.13951933	-1.2918337	0.82654582	0.10409171	-1.4874837	0.89506862	0.018077021	-1.3582865	1.3106565	-0.17727905	-1.3639375	1.2873148	0.18652531	-1.4395726	1.3359994	0.0046867276	-1.3074496	0.99003326	-0.25624002	-1.5020362	1.0023678	0.25147905	-1.0764326	0.9141147	-0.19404538	-1.4251796	0.7729814	0.26516552
11	0.04	-1.565198	0.032203532	-0.086847439	-0.89505697	0.1340045	0.11414664	-1.6841564	0.073418161	-0.093909032	-1.0190429	0.088244615	0.13209539	-1.6788888	0.081071507	-0.0066026899	-1.0145356	0.11710528	0.046137675	NaN	NaN	NaN	-1.0519861	0.038166971	0.06281365	-1.5112739	0.40247045	-0.11235132	-1.1748582	0.4444818	0.13878335	-1.5242209	0.40992496	0.0096817596	-1.1888633	0.42021125	0.007764385	-1.4144944	0.77555193	-0.17275944	-1.3633898	0.76299288	0.1730058	-1.3258998	0.8202039	-0.13966568	-1.2852647	0.82500546	0.10398881	-1.4815235	0.89372097	0.018471256	-1.3524151	1.3092791	-0.17670671	-1.3582227	1.2858458	0.18705444	-1.433693	1.3346268	0.0052636989	-1.2999075	0.98889277	-0.25580681	-1.4975147	1.001634	0.2516078	-1.0686815	0.91476241	-0.19237526	-1.4229699	0.77154774	0.26580732
